<svg width="36" height="36" viewBox="0 0 36 36" fill="none" xmlns="http://www.w3.org/2000/svg">
<rect width="36" height="36" fill="white"/>
<path fill-rule="evenodd" clip-rule="evenodd" d="M9.75 10.5C9.75 10.0858 10.0858 9.75 10.5 9.75H25.5C25.9142 9.75 26.25 10.0858 26.25 10.5C26.25 10.9142 25.9142 11.25 25.5 11.25H10.5C10.0858 11.25 9.75 10.9142 9.75 10.5ZM9.75 18C9.75 17.5858 10.0858 17.25 10.5 17.25H25.5C25.9142 17.25 26.25 17.5858 26.25 18C26.25 18.4142 25.9142 18.75 25.5 18.75H10.5C10.0858 18.75 9.75 18.4142 9.75 18ZM9.75 25.5C9.75 25.0858 10.0858 24.75 10.5 24.75H25.5C25.9142 24.75 26.25 25.0858 26.25 25.5C26.25 25.9142 25.9142 26.25 25.5 26.25H10.5C10.0858 26.25 9.75 25.9142 9.75 25.5Z" fill="black"/>
</svg>
