<svg width="36" height="36" viewBox="0 0 36 36" fill="none" xmlns="http://www.w3.org/2000/svg">
<rect width="36" height="36" fill="white"/>
<path fill-rule="evenodd" clip-rule="evenodd" d="M9.96967 26.0303C9.67678 25.7374 9.67678 25.2626 9.96967 24.9697L24.9697 9.96967C25.2626 9.67678 25.7374 9.67678 26.0303 9.96967C26.3232 10.2626 26.3232 10.7374 26.0303 11.0303L11.0303 26.0303C10.7374 26.3232 10.2626 26.3232 9.96967 26.0303Z" fill="black"/>
<path fill-rule="evenodd" clip-rule="evenodd" d="M9.96967 9.96967C10.2626 9.67678 10.7374 9.67678 11.0303 9.96967L26.0303 24.9697C26.3232 25.2626 26.3232 25.7374 26.0303 26.0303C25.7374 26.3232 25.2626 26.3232 24.9697 26.0303L9.96967 11.0303C9.67678 10.7374 9.67678 10.2626 9.96967 9.96967Z" fill="black"/>
</svg>
