<svg width="149" height="32" viewBox="0 0 149 32" fill="none" xmlns="http://www.w3.org/2000/svg">
<path fill-rule="evenodd" clip-rule="evenodd" d="M149 0H0V32H149V0ZM30.611 12.991L31.677 13.147V21.233L30.598 21.363V22H32.327C32.457 22 32.86 22.013 33.536 22.039C33.822 22.065 34.121 22.078 34.433 22.078C35.863 22.078 36.8857 21.8007 37.501 21.246C38.125 20.6914 38.437 19.9764 38.437 19.101C38.437 18.399 38.1987 17.8444 37.722 17.437C37.2454 17.0297 36.591 16.8347 35.759 16.852C36.3744 16.7394 36.8597 16.462 37.215 16.02C37.5704 15.578 37.748 15.0494 37.748 14.434C37.748 13.7147 37.488 13.1687 36.968 12.796C36.4567 12.4234 35.603 12.237 34.407 12.237C34.2077 12.237 33.9 12.2544 33.484 12.289C33.0334 12.3237 32.6607 12.341 32.366 12.341H30.611V12.991ZM33.796 16.618C33.4234 16.618 33.1764 16.6137 33.055 16.605V12.991L33.328 12.965C33.6574 12.9304 33.978 12.913 34.29 12.913C35.044 12.913 35.577 13.056 35.889 13.342C36.201 13.6194 36.357 14.0614 36.357 14.668C36.357 15.292 36.201 15.773 35.889 16.111C35.577 16.449 35.1177 16.618 34.511 16.618H33.796ZM34.407 21.376C33.705 21.376 33.2544 21.3414 33.055 21.272V17.398C33.289 17.3807 33.848 17.372 34.732 17.372C35.4947 17.372 36.045 17.5237 36.383 17.827C36.7297 18.1304 36.903 18.6157 36.903 19.283C36.903 19.959 36.7037 20.479 36.305 20.843C35.915 21.1984 35.2824 21.376 34.407 21.376ZM41.3944 13.251C41.5331 13.407 41.7411 13.485 42.0184 13.485H42.0314C42.3348 13.485 42.5688 13.3984 42.7334 13.225C42.9068 13.0517 42.9934 12.8177 42.9934 12.523C42.9934 12.2804 42.9241 12.081 42.7854 11.925C42.6468 11.769 42.4301 11.691 42.1354 11.691C41.8408 11.691 41.6068 11.782 41.4334 11.964C41.2688 12.146 41.1864 12.3757 41.1864 12.653C41.1864 12.8957 41.2558 13.095 41.3944 13.251ZM40.5104 15.552L41.4984 15.786V21.246L40.4454 21.363V22H43.8904V21.363L42.8504 21.259V14.85L42.5514 14.616H42.5254L40.5104 14.863V15.552ZM45.6575 15.552L46.5935 15.786V21.246L45.7745 21.363V22H48.8425V21.363L47.9585 21.246V16.319C48.2359 16.111 48.5522 15.929 48.9075 15.773C49.2629 15.617 49.5965 15.539 49.9085 15.539C50.2725 15.539 50.5499 15.6127 50.7405 15.76C50.9312 15.8987 51.0612 16.1154 51.1305 16.41C51.1999 16.696 51.2345 17.0947 51.2345 17.606V21.259L50.4285 21.363V22H53.5095V21.35L52.5995 21.259V17.619C52.5995 16.891 52.5389 16.3147 52.4175 15.89C52.2962 15.4567 52.0839 15.136 51.7805 14.928C51.4859 14.72 51.0655 14.616 50.5195 14.616C50.0515 14.616 49.5619 14.7287 49.0505 14.954C48.5392 15.1794 48.1275 15.4307 47.8155 15.708L47.8285 15.396V14.85L47.5555 14.616H47.5165L45.6575 14.85V15.552ZM55.2904 15.552L56.2263 15.786V21.246L55.4074 21.363V22H58.4753V21.363L57.5914 21.246V16.319C57.8687 16.111 58.185 15.929 58.5404 15.773C58.8957 15.617 59.2294 15.539 59.5414 15.539C59.9053 15.539 60.1827 15.6127 60.3734 15.76C60.564 15.8987 60.694 16.1154 60.7634 16.41C60.8327 16.696 60.8674 17.0947 60.8674 17.606V21.259L60.0614 21.363V22H63.1423V21.35L62.2323 21.259V17.619C62.2323 16.891 62.1717 16.3147 62.0504 15.89C61.929 15.4567 61.7167 15.136 61.4133 14.928C61.1187 14.72 60.6983 14.616 60.1524 14.616C59.6843 14.616 59.1947 14.7287 58.6833 14.954C58.172 15.1794 57.7603 15.4307 57.4483 15.708L57.4613 15.396V14.85L57.1884 14.616H57.1493L55.2904 14.85V15.552ZM65.8722 21.116C66.4268 21.8007 67.2285 22.143 68.2772 22.143C68.7885 22.143 69.2912 22.0477 69.7852 21.857C70.2792 21.6664 70.6518 21.441 70.9032 21.181L70.6562 20.609C70.4482 20.7824 70.1535 20.934 69.7722 21.064C69.3995 21.1854 69.0398 21.246 68.6932 21.246C67.9912 21.246 67.4495 20.986 67.0682 20.466C66.6868 19.9374 66.4875 19.244 66.4702 18.386H70.9422C71.0028 18.1087 71.0332 17.7057 71.0332 17.177C71.0072 16.345 70.7688 15.708 70.3182 15.266C69.8762 14.8154 69.2522 14.59 68.4462 14.59C67.7875 14.59 67.1982 14.746 66.6782 15.058C66.1668 15.37 65.7682 15.812 65.4822 16.384C65.1962 16.956 65.0532 17.619 65.0532 18.373C65.0532 19.517 65.3262 20.4314 65.8722 21.116ZM69.6422 17.138C69.6422 17.3287 69.6292 17.515 69.6032 17.697H66.4832C66.5265 16.839 66.6955 16.228 66.9902 15.864C67.2935 15.5 67.6965 15.318 68.1992 15.318C68.6932 15.318 69.0528 15.4827 69.2782 15.812C69.5122 16.1327 69.6335 16.5747 69.6422 17.138ZM72.9945 15.552L73.9305 15.786V21.246L73.1115 21.363V22H76.1795V21.363L75.2955 21.246V16.319C75.5728 16.111 75.8891 15.929 76.2445 15.773C76.5998 15.617 76.9334 15.539 77.2455 15.539C77.6095 15.539 77.8868 15.6127 78.0775 15.76C78.2681 15.8987 78.3981 16.1154 78.4675 16.41C78.5368 16.696 78.5714 17.0947 78.5714 17.606V21.259L77.7654 21.363V22H80.8465V21.35L79.9365 21.259V17.619C79.9365 16.891 79.8758 16.3147 79.7545 15.89C79.6331 15.4567 79.4208 15.136 79.1175 14.928C78.8228 14.72 78.4025 14.616 77.8565 14.616C77.3885 14.616 76.8988 14.7287 76.3875 14.954C75.8761 15.1794 75.4645 15.4307 75.1525 15.708L75.1655 15.396V14.85L74.8924 14.616H74.8535L72.9945 14.85V15.552ZM82.6793 12.159L83.7323 12.302V21.246L82.6793 21.363V22H86.1893V21.363L85.0843 21.259V11.548L84.7983 11.353H84.7723L82.6793 11.6V12.159ZM89.3344 18.256C88.5197 18.6374 88.1124 19.2354 88.1124 20.05C88.1124 20.726 88.316 21.246 88.7234 21.61C89.1394 21.9654 89.6594 22.143 90.2834 22.143C90.76 22.143 91.1847 22.0347 91.5574 21.818C91.9387 21.6014 92.2594 21.363 92.5194 21.103V21.532C92.5194 21.7834 92.5627 21.9437 92.6494 22.013C92.736 22.091 92.9007 22.13 93.1434 22.13C93.3427 22.13 93.5724 22.1084 93.8324 22.065C94.101 22.0217 94.322 21.9784 94.4954 21.935V21.363H93.7284V17.19C93.7284 16.566 93.6504 16.0677 93.4944 15.695C93.3384 15.3224 93.0784 15.0537 92.7144 14.889C92.359 14.7157 91.8737 14.629 91.2584 14.629C90.8597 14.629 90.461 14.6897 90.0624 14.811C89.6637 14.9324 89.3127 15.071 89.0094 15.227C88.706 15.383 88.498 15.5087 88.3854 15.604L88.7104 16.28C89.057 16.098 89.4037 15.9464 89.7504 15.825C90.1057 15.695 90.5044 15.63 90.9464 15.63C91.3364 15.63 91.6354 15.6864 91.8434 15.799C92.06 15.903 92.2117 16.072 92.2984 16.306C92.385 16.54 92.4284 16.8607 92.4284 17.268V17.632C91.1804 17.658 90.149 17.866 89.3344 18.256ZM91.6224 21.051C91.3277 21.1897 91.0677 21.259 90.8424 21.259C90.4524 21.259 90.1404 21.1507 89.9064 20.934C89.681 20.7087 89.5684 20.362 89.5684 19.894C89.5684 19.426 89.8067 19.049 90.2834 18.763C90.7687 18.4684 91.4837 18.321 92.4284 18.321V20.557C92.1857 20.7477 91.917 20.9124 91.6224 21.051ZM96.2435 15.552L97.1795 15.786V21.246L96.3605 21.363V22H99.4285V21.363L98.5445 21.246V16.319C98.8218 16.111 99.1381 15.929 99.4935 15.773C99.8488 15.617 100.182 15.539 100.494 15.539C100.858 15.539 101.136 15.6127 101.326 15.76C101.517 15.8987 101.647 16.1154 101.716 16.41C101.786 16.696 101.82 17.0947 101.82 17.606V21.259L101.014 21.363V22H104.095V21.35L103.185 21.259V17.619C103.185 16.891 103.125 16.3147 103.003 15.89C102.882 15.4567 102.67 15.136 102.366 14.928C102.072 14.72 101.651 14.616 101.105 14.616C100.637 14.616 100.148 14.7287 99.6365 14.954C99.1251 15.1794 98.7135 15.4307 98.4015 15.708L98.4145 15.396V14.85L98.1415 14.616H98.1025L96.2435 14.85V15.552ZM107.41 21.753C107.844 22.013 108.32 22.143 108.84 22.143C109.3 22.143 109.724 22.0434 110.114 21.844C110.513 21.6447 110.834 21.3977 111.076 21.103V21.519C111.076 21.7704 111.124 21.935 111.219 22.013C111.315 22.091 111.475 22.13 111.7 22.13C111.926 22.13 112.138 22.1127 112.337 22.078C112.545 22.0434 112.788 21.9957 113.065 21.935V21.337H112.311V11.561L112.025 11.353H111.986L109.646 11.587V12.146L110.972 12.302V14.733C110.608 14.6377 110.205 14.59 109.763 14.59C108.992 14.59 108.32 14.7677 107.748 15.123C107.185 15.4697 106.752 15.9464 106.448 16.553C106.145 17.1597 105.993 17.8314 105.993 18.568C105.993 19.3567 106.119 20.0197 106.37 20.557C106.63 21.0944 106.977 21.493 107.41 21.753ZM110.309 20.999C110.015 21.1464 109.698 21.22 109.36 21.22C108.797 21.22 108.338 20.9947 107.982 20.544C107.627 20.0934 107.449 19.4 107.449 18.464C107.449 17.3894 107.649 16.5964 108.047 16.085C108.455 15.565 108.996 15.305 109.672 15.305C109.958 15.305 110.227 15.3484 110.478 15.435C110.738 15.513 110.903 15.604 110.972 15.708V20.466C110.825 20.6654 110.604 20.843 110.309 20.999Z" fill="#E85340"/>
</svg>
